<svg width="103" height="31" viewBox="0 0 103 31" fill="none" xmlns="http://www.w3.org/2000/svg">
<g clip-path="url(#clip0_207_1506)">
<path fill-rule="evenodd" clip-rule="evenodd" d="M5.30095 0.951253C3.19389 1.83741 0.877275 4.33605 0.144732 7.47488C-0.783156 11.451 3.0749 13.1328 3.39101 12.5805C3.76394 11.9341 2.7002 11.7148 2.48177 9.6512C2.19852 6.98741 3.43363 4.01018 4.98928 2.70403C5.27697 2.45985 5.26365 2.79815 5.26365 3.42325C5.26365 4.54116 5.2015 14.5712 5.2015 16.665C5.2015 19.4975 5.08607 20.3925 4.87563 21.2751C4.66341 22.1719 4.32245 22.7766 4.58084 23.0101C4.86941 23.2712 6.10364 22.6505 6.81842 21.6516C7.67439 20.452 7.97451 19.0127 8.02867 17.4481C8.09349 15.563 8.09083 12.5725 8.09349 10.8668C8.09527 9.30224 8.12013 4.71963 8.06508 1.96527C8.05176 1.29044 6.18355 0.580098 5.30184 0.951253H5.30095ZM80.1642 14.2081C80.0967 15.6803 79.7708 16.8319 79.3677 17.6435C78.5863 19.2151 76.9659 19.7035 76.2777 17.4446C75.903 16.2121 75.8852 14.1557 76.1543 12.4366C76.4295 10.6848 77.1958 9.36351 78.4647 9.48249C79.7167 9.5997 80.3018 11.2175 80.1642 14.2081ZM59.0643 23.3449C59.0465 25.7911 58.6638 27.9373 57.8398 28.5597C56.6722 29.4432 55.1015 28.7808 55.4264 26.996C55.715 25.4155 57.0744 23.8022 59.0669 21.8301C59.0669 21.8301 59.0723 22.2802 59.0643 23.3449ZM58.7446 14.193C58.6736 15.5337 58.3273 16.8825 57.9482 17.6435C57.1668 19.2151 55.5356 19.7061 54.8582 17.4446C54.3964 15.8978 54.5074 13.8964 54.7356 12.6355C55.0322 11.0009 55.7523 9.48338 57.0451 9.48338C58.3024 9.48338 58.9222 10.8659 58.7446 14.193ZM46.5223 14.1725C46.4459 15.5932 46.1689 16.7804 45.7258 17.6435C44.924 19.2045 43.3355 19.6999 42.6358 17.4446C42.1314 15.817 42.3028 13.5998 42.5133 12.4011C42.824 10.6244 43.6054 9.36351 44.8228 9.48249C46.073 9.60503 46.6821 11.2175 46.5223 14.1725ZM102.537 15.833C102.232 15.833 102.093 16.1491 101.976 16.681C101.576 18.5314 101.155 18.9487 100.612 18.9487C100.006 18.9487 99.4607 18.0324 99.3204 16.1979C99.2103 14.7559 99.2281 12.101 99.3693 9.4603C99.3977 8.91866 99.2476 8.38146 97.7976 7.85314C97.1734 7.62494 96.2642 7.29019 95.8122 8.38412C94.5362 11.475 94.0354 13.9293 93.9182 14.9264C93.9129 14.9779 93.8499 14.9886 93.8383 14.8678C93.7637 14.0687 93.5959 12.6187 93.5755 9.5704C93.5711 8.97549 93.445 8.46937 92.7915 8.05381C92.3661 7.78566 91.076 7.30973 90.6116 7.87623C90.2093 8.33795 89.7432 9.58372 89.2593 11.0603C88.8659 12.2599 88.5915 13.0724 88.5915 13.0724C88.5915 13.0724 88.5969 9.83411 88.6004 8.60611C88.604 8.14261 88.2861 7.98811 88.1902 7.95969C87.7613 7.83538 86.9133 7.62583 86.5537 7.62583C86.1098 7.62583 86.0006 7.87445 86.0006 8.23761C86.0006 8.28556 85.9304 12.4997 85.9304 15.4476C85.9304 15.5764 85.9304 15.7158 85.9322 15.8649C85.6862 17.219 84.8898 19.0579 84.024 19.0579C83.1574 19.0579 82.7481 18.289 82.7481 14.7746C82.7481 12.7252 82.8102 11.8328 82.8395 10.3509C82.8573 9.49759 82.891 8.84141 82.8892 8.69312C82.8821 8.23584 82.0954 8.00587 81.7296 7.92062C81.362 7.83627 81.0415 7.80164 80.792 7.81674C80.4386 7.83716 80.189 8.06891 80.189 8.38768L80.1908 8.8858C79.7362 8.16836 79.0037 7.66934 78.5171 7.52549C77.2056 7.1348 75.8355 7.4811 74.8038 8.92931C73.9833 10.0801 73.4887 11.3836 73.2943 13.2571C73.1522 14.6272 73.1984 16.015 73.4505 17.1906C73.146 18.5145 72.5777 19.0579 71.9562 19.0579C71.0549 19.0579 70.4005 17.5813 70.4769 15.0276C70.5275 13.3477 70.8622 12.1703 71.2281 10.4645C71.3843 9.73644 71.2582 9.35641 70.9395 8.99236C70.6465 8.65761 70.0249 8.48624 69.1308 8.69668C68.4941 8.84762 67.5831 9.00745 66.7502 9.13176C66.7502 9.13176 66.8008 8.9302 66.8417 8.57592C67.0574 6.7157 65.0427 6.86665 64.3999 7.46156C64.0163 7.81585 63.7552 8.23406 63.6549 8.98614C63.4986 10.1795 64.4691 10.7425 64.4691 10.7425C64.1512 12.2049 63.3699 14.1148 62.5636 15.4947C62.1321 16.2352 61.8018 16.7831 61.3756 17.3655C61.3747 17.1489 61.372 16.9322 61.372 16.7156C61.3631 13.6425 61.4031 11.2228 61.4208 10.3509C61.4386 9.49759 61.4732 8.85917 61.4715 8.70999C61.4661 8.37613 61.2717 8.25005 60.8677 8.09022C60.4768 7.94021 60.0661 7.84837 59.6485 7.81762C59.0954 7.775 58.7606 8.06891 58.7695 8.41609C58.7721 8.4818 58.7722 8.88669 58.7722 8.88669C58.3175 8.16836 57.5859 7.67023 57.0975 7.52549C55.7869 7.1348 54.4169 7.4811 53.386 8.92931C52.5646 10.0801 52.0274 11.6952 51.8747 13.2438C51.7335 14.6858 51.7593 15.9111 51.9537 16.9429C51.7442 17.9773 51.1439 19.0579 50.4664 19.0579C49.5998 19.0579 49.1061 18.289 49.1061 14.7746C49.1061 12.7252 49.1683 11.8337 49.1985 10.3509C49.2162 9.49759 49.2491 8.84141 49.2473 8.69312C49.2411 8.23584 48.4535 8.00587 48.0877 7.92062C47.705 7.83183 47.3738 7.79898 47.1198 7.81851C46.7851 7.84337 46.5498 8.14438 46.5498 8.36903V8.8858C46.0943 8.16836 45.3617 7.66934 44.8751 7.52549C43.5628 7.1348 42.2025 7.48643 41.1618 8.92931C40.4834 9.87052 39.9347 10.913 39.6523 13.2225C39.5739 13.8447 39.5362 14.4715 39.5396 15.0987C39.2687 16.7573 38.0745 18.669 37.0978 18.669C36.5259 18.669 35.9807 17.5573 35.9807 15.1875C35.9807 12.0291 36.1761 7.53349 36.2081 7.10106C36.2081 7.10106 37.4423 7.07975 37.682 7.07709C38.2982 7.06999 38.8559 7.08508 39.6763 7.04335C40.0874 7.02204 40.4843 5.54186 40.0581 5.35805C39.8672 5.27459 38.5069 5.20267 37.9679 5.19112C37.3953 5.16518 36.8231 5.13055 36.2516 5.08724C36.2516 5.08724 36.3652 2.10379 36.3919 1.78768C36.4141 1.52486 36.0749 1.38989 35.8813 1.3082C35.408 1.10664 34.9845 1.01074 34.4837 0.906857C33.7911 0.764788 33.4768 0.904193 33.4164 1.49023C33.3232 2.37905 33.2761 4.98512 33.2761 4.98512C32.7682 4.98512 31.0314 4.88479 30.5235 4.88479C30.0511 4.88479 29.5415 6.9217 30.195 6.94656C30.9453 6.97587 32.255 7.00162 33.1225 7.02737C33.1225 7.02737 33.0843 11.5975 33.0843 13.0076L33.0852 13.4427C32.6084 15.9395 30.9249 17.2883 30.9249 17.2883C31.2871 15.6367 30.5484 14.3963 29.2191 13.3459C28.729 12.9587 27.7629 12.2271 26.6806 11.4235C26.6806 11.4235 27.3074 10.8046 27.8633 9.55886C28.2575 8.67625 28.2735 7.66579 27.3074 7.4438C25.7109 7.07531 24.3941 8.25182 24.0008 9.50736C23.6971 10.4796 23.8596 11.2006 24.4545 11.9509L24.5948 12.1179C24.186 12.9138 23.7609 13.7013 23.3197 14.4798C22.1557 16.4989 21.2775 18.0963 20.6115 18.0963C20.0806 18.0963 20.0877 16.475 20.0877 14.9566C20.0877 13.6469 20.1844 11.6792 20.2617 9.64232C20.2866 8.96749 19.9509 8.58391 19.388 8.23584C19.0452 8.0254 18.3145 7.60985 17.8918 7.60985C17.2587 7.60985 15.4322 7.69598 13.7052 12.703C13.4886 13.3335 13.0606 14.4833 13.0606 14.4833L13.0979 8.46315C13.0979 8.32197 13.0233 8.18523 12.851 8.09199C12.5607 7.93394 11.7828 7.60985 11.0929 7.60985C10.7635 7.60985 10.5983 7.76346 10.5983 8.06891L10.5389 17.4899C10.5389 18.2055 10.5566 19.0402 10.6276 19.4051C10.6987 19.771 10.8123 20.0684 10.9526 20.2451C11.0947 20.4227 11.2563 20.5568 11.5253 20.6118C11.7757 20.6633 13.1449 20.84 13.2169 20.3153C13.3012 19.6866 13.3048 19.0064 14.024 16.4705C15.1428 12.5201 16.6016 10.5942 17.288 9.90959C17.4079 9.78972 17.5455 9.78261 17.5384 9.97885C17.5091 10.8446 17.4052 13.0076 17.3369 14.8456C17.1513 19.7647 18.0436 20.6766 19.3178 20.6766C20.2946 20.6766 21.67 19.7044 23.1439 17.2439C23.9651 15.8726 24.7823 14.499 25.5955 13.123C26.043 13.5377 26.5447 13.9843 27.0455 14.4611C28.2096 15.5693 28.5923 16.6223 28.3383 17.6213C28.1439 18.3849 27.4131 19.1716 26.1141 18.4071C25.734 18.1842 25.5724 18.0111 25.1906 17.7598C24.9864 17.6248 24.6747 17.584 24.4865 17.726C23.9999 18.0936 23.7211 18.5625 23.563 19.1423C23.4076 19.7052 23.9715 20.0036 24.5557 20.2646C25.0574 20.4902 26.1389 20.6926 26.8279 20.7157C29.5122 20.8063 31.6636 19.4158 33.1616 15.8294C33.4297 18.9265 34.5698 20.6793 36.5517 20.6793C37.8774 20.6793 39.2066 18.9612 39.7873 17.2714C39.9533 17.9605 40.2002 18.5589 40.5198 19.0659C42.0471 21.4927 45.0101 20.9705 46.4974 18.9097C46.9582 18.273 47.0275 18.0439 47.0275 18.0439C47.2441 19.9903 48.8069 20.6704 49.7011 20.6704C50.7044 20.6704 51.7389 20.1945 52.4625 18.5572C52.5486 18.7365 52.641 18.9052 52.7422 19.0659C54.2695 21.4927 57.2325 20.9705 58.7207 18.9097C58.7908 18.8129 58.8512 18.7259 58.9045 18.6468L58.9489 19.9255L57.5779 21.1845C55.2817 23.2952 53.5369 24.8961 53.4091 26.7616C53.2457 29.1386 55.1672 30.023 56.6234 30.1384C58.1666 30.2619 59.4905 29.405 60.3029 28.2081C61.0177 27.1541 61.4857 24.8854 61.4519 22.6443C61.4377 21.7466 61.4164 20.6065 61.3978 19.3838C62.344 18.2847 63.1973 17.1089 63.9488 15.8685C64.8598 14.3555 65.8365 12.3221 66.3373 10.7407C66.3373 10.7407 67.1853 10.7478 68.0919 10.6874C68.3805 10.6697 68.4648 10.7291 68.4115 10.9414C68.3458 11.1989 67.2661 15.3748 68.2517 18.1567C68.9265 20.0613 70.4467 20.6731 71.3479 20.6731C72.4028 20.6731 73.4124 19.874 73.9531 18.6877C74.0188 18.82 74.0863 18.9478 74.1609 19.0659C75.6881 21.4927 78.6405 20.967 80.1393 18.9097C80.4776 18.4462 80.6694 18.0439 80.6694 18.0439C80.9917 20.0578 82.5518 20.6802 83.4478 20.6802C84.3783 20.6802 85.2627 20.2966 85.9801 18.5944C86.0103 19.3447 86.0574 19.9574 86.132 20.1501C86.1773 20.2682 86.4419 20.4165 86.6354 20.4884C87.487 20.8054 88.3562 20.6562 88.6777 20.5905C88.9005 20.5452 89.0755 20.3659 89.0986 19.9033C89.1598 18.6877 89.1225 16.6454 89.4901 15.1288C90.1064 12.5814 90.6817 11.594 90.9543 11.1047C91.107 10.8304 91.2793 10.786 91.2864 11.0754C91.2988 11.6624 91.3281 13.3858 91.567 15.7007C91.7419 17.4037 91.9763 18.4098 92.1566 18.7285C92.6716 19.6386 93.3065 19.6822 93.8232 19.6822C94.1518 19.6822 94.8399 19.5916 94.7778 19.0118C94.7476 18.7294 94.8 16.9828 95.4082 14.4744C95.806 12.8362 96.4675 11.3551 96.7055 10.8144C96.7934 10.6146 96.8351 10.7718 96.8333 10.8028C96.7827 11.9305 96.6708 15.6208 97.129 17.6399C97.7506 20.3747 99.5477 20.6802 100.174 20.6802C101.512 20.6802 102.605 19.66 102.973 16.9757C103.062 16.3302 102.932 15.8312 102.537 15.8312V15.833Z" fill="black"/>
</g>
<defs>
<clipPath id="clip0_207_1506">
<rect width="103" height="31" fill="white"/>
</clipPath>
</defs>
</svg>
